<mxfile host="app.diagrams.net" agent="Mozilla/5.0 (Windows NT 10.0; Win64; x64) AppleWebKit/537.36 (KHTML, like Gecko) Chrome/139.0.0.0 Safari/537.36" version="28.1.2">
  <diagram name="Page-1" id="Ffvwl3qOaILqNQCypbMV">
    <mxGraphModel dx="786" dy="389" grid="1" gridSize="10" guides="1" tooltips="1" connect="1" arrows="1" fold="1" page="1" pageScale="1" pageWidth="850" pageHeight="1100" math="0" shadow="0">
      <root>
        <mxCell id="0" />
        <mxCell id="1" parent="0" />
        <mxCell id="27FojVrx8uzZ6xsNynHt-1" value="User" style="rounded=0;whiteSpace=wrap;html=1;" parent="1" vertex="1">
          <mxGeometry x="40" y="22" width="100" height="30" as="geometry" />
        </mxCell>
        <mxCell id="27FojVrx8uzZ6xsNynHt-3" value="" style="endArrow=classic;html=1;rounded=0;" parent="1" edge="1">
          <mxGeometry relative="1" as="geometry">
            <mxPoint x="170" y="36.5" as="sourcePoint" />
            <mxPoint x="350" y="42" as="targetPoint" />
          </mxGeometry>
        </mxCell>
        <mxCell id="27FojVrx8uzZ6xsNynHt-4" value="Calls some function" style="edgeLabel;resizable=0;html=1;;align=center;verticalAlign=middle;" parent="27FojVrx8uzZ6xsNynHt-3" connectable="0" vertex="1">
          <mxGeometry relative="1" as="geometry">
            <mxPoint x="-10" y="1" as="offset" />
          </mxGeometry>
        </mxCell>
        <mxCell id="27FojVrx8uzZ6xsNynHt-5" value="Dapp receives an address and stores it in a simple mapping" style="ellipse;whiteSpace=wrap;html=1;" parent="1" vertex="1">
          <mxGeometry x="366" y="7" width="120" height="79" as="geometry" />
        </mxCell>
        <mxCell id="27FojVrx8uzZ6xsNynHt-6" value="User" style="rounded=0;whiteSpace=wrap;html=1;" parent="1" vertex="1">
          <mxGeometry x="40" y="146" width="100" height="30" as="geometry" />
        </mxCell>
        <mxCell id="27FojVrx8uzZ6xsNynHt-11" value="" style="endArrow=classic;html=1;rounded=0;" parent="1" edge="1">
          <mxGeometry relative="1" as="geometry">
            <mxPoint x="190" y="170" as="sourcePoint" />
            <mxPoint x="330" y="170" as="targetPoint" />
          </mxGeometry>
        </mxCell>
        <mxCell id="27FojVrx8uzZ6xsNynHt-12" value="calls some other function&lt;div&gt;to send a transaction to&lt;/div&gt;&lt;div&gt;a whitelisted address&lt;/div&gt;" style="edgeLabel;resizable=0;html=1;;align=center;verticalAlign=middle;" parent="27FojVrx8uzZ6xsNynHt-11" connectable="0" vertex="1">
          <mxGeometry relative="1" as="geometry">
            <mxPoint y="-26" as="offset" />
          </mxGeometry>
        </mxCell>
        <mxCell id="27FojVrx8uzZ6xsNynHt-13" value="Dapp verifies the address and sends a transaction to send the tokens to the address" style="ellipse;whiteSpace=wrap;html=1;" parent="1" vertex="1">
          <mxGeometry x="360" y="106" width="240" height="90" as="geometry" />
        </mxCell>
        <mxCell id="C3M8RFJo48p8_9g7uVLH-2" value="0xAlice wants to send 0.1 ETH to 0xbob" style="rounded=0;whiteSpace=wrap;html=1;" vertex="1" parent="1">
          <mxGeometry x="70" y="340" width="120" height="60" as="geometry" />
        </mxCell>
        <mxCell id="C3M8RFJo48p8_9g7uVLH-3" value="" style="endArrow=classic;html=1;rounded=0;" edge="1" parent="1">
          <mxGeometry relative="1" as="geometry">
            <mxPoint x="220" y="370" as="sourcePoint" />
            <mxPoint x="320" y="370" as="targetPoint" />
          </mxGeometry>
        </mxCell>
        <mxCell id="C3M8RFJo48p8_9g7uVLH-6" value="Dapp checks if 0xbob is a whitelisted address" style="ellipse;whiteSpace=wrap;html=1;" vertex="1" parent="1">
          <mxGeometry x="340" y="320" width="195" height="100" as="geometry" />
        </mxCell>
        <mxCell id="C3M8RFJo48p8_9g7uVLH-9" value="is whitelisted?" style="endArrow=classic;html=1;rounded=0;" edge="1" parent="1">
          <mxGeometry width="50" height="50" relative="1" as="geometry">
            <mxPoint x="540" y="350" as="sourcePoint" />
            <mxPoint x="620" y="270" as="targetPoint" />
          </mxGeometry>
        </mxCell>
        <mxCell id="C3M8RFJo48p8_9g7uVLH-10" value="Dapp proceeds with the transfer" style="ellipse;whiteSpace=wrap;html=1;" vertex="1" parent="1">
          <mxGeometry x="600" y="190" width="120" height="80" as="geometry" />
        </mxCell>
        <mxCell id="C3M8RFJo48p8_9g7uVLH-11" value="is not whitelisted?" style="endArrow=classic;html=1;rounded=0;" edge="1" parent="1">
          <mxGeometry width="50" height="50" relative="1" as="geometry">
            <mxPoint x="550" y="400" as="sourcePoint" />
            <mxPoint x="690" y="430" as="targetPoint" />
          </mxGeometry>
        </mxCell>
        <mxCell id="C3M8RFJo48p8_9g7uVLH-12" value="Dapp reverts" style="ellipse;whiteSpace=wrap;html=1;" vertex="1" parent="1">
          <mxGeometry x="690" y="390" width="120" height="80" as="geometry" />
        </mxCell>
      </root>
    </mxGraphModel>
  </diagram>
</mxfile>
